<svg xmlns="http://www.w3.org/2000/svg" viewBox="0 0 640 400" fill="none">
  <defs>
    <linearGradient id="g" x1="0" y1="0" x2="1" y2="1">
      <stop offset="0" stop-color="#FB7185" stop-opacity="0.85"/>
      <stop offset="1" stop-color="#0B1220" stop-opacity="0.9"/>
    </linearGradient>
    <filter id="b" x="-20%" y="-20%" width="140%" height="140%">
      <feGaussianBlur stdDeviation="18" />
    </filter>
  </defs>
  <rect width="640" height="400" rx="28" fill="url(#g)"/>
  <circle cx="160" cy="260" r="140" fill="#FDA4AF" fill-opacity="0.18" filter="url(#b)"/>
  <circle cx="460" cy="150" r="100" fill="#FECDD3" fill-opacity="0.20" filter="url(#b)"/>
  <path d="M320 110l50 95 105 15-77 75 18 106-96-50-96 50 18-106-77-75 105-15 50-95Z" fill="#FFF1F2" fill-opacity="0.16"/>
  <path d="M320 150l33 63 70 10-51 50 12 71-64-33-64 33 12-71-51-50 70-10 33-63Z" fill="#FFF1F2" fill-opacity="0.14"/>
</svg>

